<svg width="32" height="32" viewBox="0 0 32 32" fill="none" xmlns="http://www.w3.org/2000/svg">
<rect width="32" height="32" rx="8.93023" fill="#EBECFE"/>
<path d="M12.6499 12.3984C13.5123 12.3984 14.2114 13.0975 14.2114 13.9599V22.4365C14.2114 23.2989 13.5123 23.998 12.6499 23.998H8.6308C7.76843 23.998 7.06934 23.2989 7.06934 22.4365V13.9599C7.06934 13.0975 7.76843 12.3984 8.6308 12.3984H12.6499ZM10.8634 20.8707H10.4173C10.0477 20.8707 9.7481 21.1704 9.7481 21.5399C9.7481 21.9095 10.0477 22.2091 10.4173 22.2091H10.8634C11.233 22.2091 11.5326 21.9095 11.5326 21.5399C11.5326 21.1704 11.233 20.8707 10.8634 20.8707Z" fill="#5264E8"/>
<path d="M24.5576 20.9029C24.5576 20.5333 24.258 20.2337 23.8884 20.2337L14.7429 20.2333V21.5717L23.8884 21.5721L23.9792 21.566C24.3058 21.5217 24.5576 21.2417 24.5576 20.9029Z" fill="#A1ACFF"/>
<path d="M22.7736 11.5346C22.7736 10.6722 22.0745 9.97314 21.2121 9.97314H10.0589C9.19649 9.97314 8.4974 10.6722 8.4974 11.5346L8.49707 11.7568L12.9587 11.7574L13.0919 11.7623C14.0153 11.8304 14.7432 12.6011 14.7432 13.5419L14.7429 19.788L21.2121 19.7883C22.0745 19.7883 22.7736 19.0892 22.7736 18.2268V11.5346Z" fill="#A1ACFF"/>
</svg>
