<svg width="14" height="14" viewBox="0 0 14 14" fill="none" xmlns="http://www.w3.org/2000/svg">
<path d="M7.875 10.0625H7.4375V6.15213C7.4375 6.14731 7.43619 6.14294 7.43619 6.13856C7.43619 6.13419 7.4375 6.12981 7.4375 6.125C7.4375 5.8835 7.2415 5.6875 7 5.6875H6.125C5.8835 5.6875 5.6875 5.8835 5.6875 6.125C5.6875 6.3665 5.8835 6.5625 6.125 6.5625H6.5625V10.0625H6.125C5.8835 10.0625 5.6875 10.2585 5.6875 10.5C5.6875 10.7415 5.8835 10.9375 6.125 10.9375H7.875C8.1165 10.9375 8.3125 10.7415 8.3125 10.5C8.3125 10.2585 8.1165 10.0625 7.875 10.0625ZM7 4.8125C7.48344 4.8125 7.875 4.4205 7.875 3.9375C7.875 3.4545 7.48344 3.0625 7 3.0625C6.51656 3.0625 6.125 3.4545 6.125 3.9375C6.125 4.4205 6.517 4.8125 7 4.8125ZM7 0C3.13425 0 0 3.13381 0 7C0 10.8662 3.13381 14 7 14C10.8662 14 14 10.8662 14 7C14 3.13381 10.8662 0 7 0ZM7 13.1386C3.6225 13.1386 0.875 10.3771 0.875 6.99956C0.875 3.62206 3.6225 0.874563 7 0.874563C10.3775 0.874563 13.125 3.62206 13.125 6.99956C13.125 10.3771 10.3775 13.1386 7 13.1386Z" fill="#7081FF"/>
</svg>
