<svg width="32" height="32" viewBox="0 0 32 32" fill="none" xmlns="http://www.w3.org/2000/svg">
<rect width="32" height="32" rx="8.93023" fill="#EBECFE"/>
<path d="M8.07812 19.0806C8.07812 16.8489 8.07812 15.7331 8.77143 15.0398C9.46473 14.3464 10.5806 14.3464 12.8123 14.3464H19.1245C21.3562 14.3464 22.472 14.3464 23.1653 15.0398C23.8586 15.7331 23.8586 16.8489 23.8586 19.0806C23.8586 21.3123 23.8586 22.4281 23.1653 23.1214C22.472 23.8147 21.3562 23.8147 19.1245 23.8147H12.8123C10.5806 23.8147 9.46473 23.8147 8.77143 23.1214C8.07812 22.4281 8.07812 21.3123 8.07812 19.0806Z" fill="#A1ACFF"/>
<path d="M12.8125 19.8691C13.2482 19.8691 13.6015 19.5158 13.6015 19.08C13.6015 18.6443 13.2482 18.291 12.8125 18.291C12.3767 18.291 12.0234 18.6443 12.0234 19.08C12.0234 19.5158 12.3767 19.8691 12.8125 19.8691Z" fill="#5264E8"/>
<path d="M15.9687 19.8691C16.4045 19.8691 16.7577 19.5158 16.7577 19.08C16.7577 18.6443 16.4045 18.291 15.9687 18.291C15.5329 18.291 15.1797 18.6443 15.1797 19.08C15.1797 19.5158 15.5329 19.8691 15.9687 19.8691Z" fill="#5264E8"/>
<path d="M19.913 19.08C19.913 19.5158 19.5598 19.8691 19.124 19.8691C18.6882 19.8691 18.335 19.5158 18.335 19.08C18.335 18.6443 18.6882 18.291 19.124 18.291C19.5598 18.291 19.913 18.6443 19.913 19.08Z" fill="#5264E8"/>
<path d="M11.8262 12.7682C11.8262 10.4804 13.6809 8.6258 15.9686 8.6258C18.2564 8.6258 20.111 10.4804 20.111 12.7682V14.3491C20.5587 14.3533 20.9501 14.3636 21.2945 14.3893V12.7682C21.2945 9.82676 18.91 7.44226 15.9686 7.44226C13.0272 7.44226 10.6427 9.82676 10.6427 12.7682V14.3893C10.9871 14.3636 11.3786 14.3533 11.8262 14.3491V12.7682Z" fill="#5264E8"/>
</svg>
